{"title":"The Grey 2012 CAM READNFO XViD - INSPiRAL.","uid":6991486,"size":1303602200,"categoryP":"video","categoryS":"movies","magnet":"?xt=urn:btih:8d508e60e5eb612af49d36cc3463a196e3b1d15d&amp;dn=The+Grey+2012+CAM+READNFO+XViD+-+INSPiRAL.&amp;tr=udp%3A%2F%2Ftracker.openbittorrent.com%3A80&amp;tr=udp%3A%2F%2Fopen.demonii.com%3A1337&amp;tr=udp%3A%2F%2Ftracker.coppersurfer.tk%3A6969&amp;tr=udp%3A%2F%2Fexodus.desync.com%3A6969","seeders":0,"leechers":0,"uploader":"crazy-torrent","files":2,"time":1327719009,"description":" &lt;a href=&quot;http://www.scenespeeds.com/&quot; rel=&quot;nofollow&quot; target=&quot;_NEW&quot;&gt;http://www.scenespeeds.com/&lt;/a&gt;\n\nDescription\nTITLE: \nThe Grey 2012 CAM READNFO XViD INSPiRAL \n\nIMDB: http://www.imdb.com/title/tt1601913/ \n\nSOURCES: \n\nVIDEO Lum1x THANKS \nAUDIO eggy THANKS \nSUBS - None Add \n\nSTATS: \n\nVideo \nID : 0 \nFormat : MPEG-4 Visual \nFormat profile : Advanced Simple@L5 \nFormat settings, BVOP : 1 \nFormat settings, QPel : No \nFormat settings, GMC : No warppoints \nFormat settings, Matrix : Default (MPEG) \nMuxing mode : Packed bitstream \nCodec ID : XVID \nCodec ID/Hint : XviD \nDuration : 1h 35mn \nBit rate : 1 678 Kbps \nWidth : 720 pixels \nHeight : 272 pixels \nDisplay aspect ratio : 2.647 \nFrame rate : 25.000 fps \nColor space : YUV \nChroma subsampling : 4:2:0 \nBit depth : 8 bits \nScan type : Progressive \nCompression mode : Lossy \nBits/(Pixel*Frame) : 0.343 \nStream size : 1.12 GiB (92%) \nWriting library : XviD 64 \n\nAudio \nID : 1 \nFormat : MPEG Audio \nFormat version : Version 1 \nFormat profile : Layer 3 \nCodec ID : 55 \nCodec ID/Hint : MP3 \nDuration : 1h 35mn \nBit rate mode : Constant \nBit rate : 128 Kbps \nChannel(s) : 2 channels \nSampling rate : 44.1 KHz \nCompression mode : Lossy \nStream size : 87.6 MiB (7%) \nAlignment : Split accross interleaves \nInterleave, duration : 40 ms (1.00 video frame) \nInterleave, preload duration : 500 ms \n\nNOTES: \n\nSources, russian video was ok not great but with some TLC could be pretty nice \nAudio is ok for cam ,some talking and coughs here and there \n\nReadnfo ,is becuase there is 15mins just under missing ..hence the reason we opted to do no work to the \nvideo nor audio as it was pointless audio missing in 4 places so had to cut the russian video out on these parts \nOnly reason for doing it,is i know a few trying to sync this and want it either way so this is for them and any \nother leechers \n\nOnce we get new audio well then sync it to the complete video and go to town on it,but till then this is it\n &lt;a href=&quot;\nhttp://www.scenespeeds.com/&quot; rel=&quot;nofollow&quot; target=&quot;_NEW&quot;&gt;\nhttp://www.scenespeeds.com/&lt;/a&gt;\n","torrent":{"xt":"urn:btih:8d508e60e5eb612af49d36cc3463a196e3b1d15d","amp;dn":"The+Grey+2012+CAM+READNFO+XViD+-+INSPiRAL.","amp;tr":["udp%3A%2F%2Ftracker.openbittorrent.com%3A80","udp%3A%2F%2Fopen.demonii.com%3A1337","udp%3A%2F%2Ftracker.coppersurfer.tk%3A6969","udp%3A%2F%2Fexodus.desync.com%3A6969"],"infoHash":"8d508e60e5eb612af49d36cc3463a196e3b1d15d","infoHashBuffer":{"type":"Buffer","data":[141,80,142,96,229,235,97,42,244,157,54,204,52,99,161,150,227,177,209,93]},"announce":[],"urlList":[]}}